<svg id="mainsvg" xmlns="http://www.w3.org/2000/svg" xmlns:xlink="http://www.w3.org/1999/xlink" version="1.1" x="0px" y="0px" enable-background="new 0 0 200 162.5" xml:space="preserve" viewBox="0 0 83 22"><path fill="#000" transform="translate(-0.352, 19.296)" d="M4.54 2.66L4.54 2.66Q3.49 2.66 2.53 2.30Q1.57 1.95 0.96 1.18Q0.35 0.42 0.35-0.77L0.35-0.77Q0.35-1.06 0.50-1.30Q0.64-1.54 0.77-1.54L0.77-1.54Q1.02-1.54 1.02-0.77L1.02-0.77Q1.02 0.32 1.95 0.93L1.95 0.93Q2.69 1.41 3.94 1.41L3.94 1.41Q5.18 1.41 6.53 0.96Q7.87 0.51 9.09-0.32L9.09-0.32Q10.53-1.28 12.30-3.09Q14.08-4.90 16-7.04L16-7.04Q14.46-7.20 12.94-7.39Q11.42-7.58 9.89-7.58L9.89-7.58Q8.86-7.58 7.84-7.38Q6.82-7.17 5.98-6.59Q5.15-6.02 4.74-4.90L4.74-4.90Q4.70-4.77 4.66-4.61Q4.61-4.45 4.61-4.29L4.61-4.29Q4.61-3.97 4.77-3.71L4.77-3.71Q4.83-3.52 4.83-3.49L4.83-3.49Q4.83-3.20 4.58-3.20L4.58-3.20Q4.35-3.20 4.22-3.42L4.22-3.42Q3.90-4 3.90-4.90L3.90-4.90Q3.90-6.59 4.53-7.49Q5.15-8.38 6.21-8.70Q7.26-9.02 8.48-9.02L8.48-9.02Q9.02-9.02 9.62-8.98Q10.21-8.93 10.78-8.86L10.78-8.86Q12.19-8.74 13.70-8.43Q15.20-8.13 16.70-7.81L16.70-7.81Q18.37-9.76 19.98-11.74Q21.60-13.73 23.01-15.50Q24.42-17.28 25.41-18.56L25.41-18.56Q25.44-18.66 25.54-18.69L25.54-18.69Q25.60-18.75 25.63-18.75L25.63-18.75Q25.98-18.94 26.53-19.09Q27.07-19.23 27.26-19.23L27.26-19.23Q27.58-19.23 27.58-18.88L27.58-18.88Q27.58-18.78 27.42-18.53L27.42-18.53Q25.82-15.81 24.69-12.96Q23.55-10.11 22.69-7.10L22.69-7.10L22.62-6.88Q22.82-6.88 23.02-6.86Q23.23-6.85 23.39-6.85L23.39-6.85Q24.77-6.75 25.73-7.14L25.73-7.14Q26.43-7.39 26.69-7.87L26.69-7.87Q26.78-8 26.85-8L26.85-8Q27.01-8 27.07-7.82Q27.14-7.65 27.04-7.49L27.04-7.49Q26.69-6.88 25.79-6.59L25.79-6.59Q25.28-6.37 24.62-6.30Q23.97-6.24 23.26-6.27L23.26-6.27L23.07-6.27L22.69-6.30L22.50-6.30Q22.02-4.54 21.82-2.66L21.82-2.66Q21.79-2.50 21.79-2.35Q21.79-2.21 21.79-2.05L21.79-2.05Q21.79-0.22 22.78-0.22L22.78-0.22Q23.42-0.22 24.30-0.80Q25.18-1.38 26.10-2.21Q27.01-3.04 27.74-3.86Q28.48-4.67 28.83-5.15L28.83-5.15Q28.90-5.22 29.02-5.22L29.02-5.22Q29.34-5.22 29.22-4.86L29.22-4.86Q29.15-4.77 28.67-4.11Q28.19-3.46 27.36-2.54Q26.53-1.63 25.41-0.74L25.41-0.74Q24.51-0.03 23.63 0.18Q22.75 0.38 22.30 0.38L22.30 0.38Q21.41 0.38 20.88-0.43Q20.35-1.25 20.35-2.53L20.35-2.53Q20.35-3.46 20.54-4.45Q20.74-5.44 20.99-6.43L20.99-6.43Q20.06-6.53 19.10-6.64Q18.14-6.75 17.18-6.88L17.18-6.88Q15.26-4.54 13.36-2.51Q11.46-0.48 9.79 0.77L9.79 0.77Q8.54 1.66 7.22 2.16Q5.89 2.66 4.54 2.66ZM21.12-7.04L21.12-7.04Q21.70-9.28 22.48-11.54Q23.26-13.79 24.03-15.65L24.03-15.65L24.19-16.03Q22.82-14.11 21.17-11.94Q19.52-9.76 17.82-7.62L17.82-7.62Q18.66-7.46 19.49-7.31Q20.32-7.17 21.12-7.04ZM30.43 0.32L30.43 0.32Q29.09 0.32 28.56-0.35Q28.03-1.02 28.03-2.02L28.03-2.02Q28.03-2.94 28.46-4.35Q28.90-5.76 29.60-7.39Q30.30-9.02 31.12-10.64Q31.94-12.26 32.75-13.62Q33.57-14.98 34.18-15.81L34.18-15.81Q34.78-16.61 35.49-17.41Q36.19-18.21 37.06-18.75Q37.92-19.30 39.01-19.30L39.01-19.30Q39.74-19.30 40.27-18.90Q40.80-18.50 40.80-17.70L40.80-17.70Q40.80-17.38 40.69-16.96Q40.58-16.54 40.32-16.10L40.32-16.10Q38.37-12.70 35.66-9.82Q32.96-6.94 29.95-4.48L29.95-4.48Q29.82-4 29.71-3.62Q29.60-3.23 29.54-3.01L29.54-3.01Q29.50-2.85 29.50-2.67Q29.50-2.50 29.50-2.34L29.50-2.34Q29.50-1.57 29.76-0.99Q30.02-0.42 30.62-0.42L30.62-0.42Q31.20-0.42 32.05-0.98Q32.90-1.54 33.76-2.35Q34.62-3.17 35.33-3.94Q36.03-4.70 36.32-5.12L36.32-5.12Q36.42-5.22 36.51-5.22L36.51-5.22Q36.64-5.22 36.72-5.09Q36.80-4.96 36.70-4.77L36.70-4.77Q36.38-4.22 35.68-3.42Q34.98-2.62 34.11-1.81Q33.25-0.99 32.45-0.38L32.45-0.38Q31.46 0.32 30.43 0.32ZM30.40-5.76L30.40-5.76Q31.62-6.59 32.93-7.92Q34.24-9.25 35.50-10.82Q36.77-12.38 37.81-13.92Q38.85-15.46 39.49-16.70L39.49-16.70Q39.68-17.06 39.76-17.33Q39.84-17.60 39.84-17.82L39.84-17.82Q39.84-18.43 39.33-18.43L39.33-18.43Q38.88-18.43 38.21-17.95L38.21-17.95Q36.48-16.61 35.01-14.51Q33.54-12.42 32.38-10.11Q31.23-7.81 30.40-5.76ZM37.92 0.32L37.92 0.32Q36.58 0.32 36.05-0.35Q35.52-1.02 35.52-2.02L35.52-2.02Q35.52-2.94 35.95-4.35Q36.38-5.76 37.09-7.39Q37.79-9.02 38.61-10.64Q39.42-12.26 40.24-13.62Q41.06-14.98 41.66-15.81L41.66-15.81Q42.27-16.61 42.98-17.41Q43.68-18.21 44.54-18.75Q45.41-19.30 46.50-19.30L46.50-19.30Q47.23-19.30 47.76-18.90Q48.29-18.50 48.29-17.70L48.29-17.70Q48.29-17.38 48.18-16.96Q48.06-16.54 47.81-16.10L47.81-16.10Q45.86-12.70 43.15-9.82Q40.45-6.94 37.44-4.48L37.44-4.48Q37.31-4 37.20-3.62Q37.09-3.23 37.02-3.01L37.02-3.01Q36.99-2.85 36.99-2.67Q36.99-2.50 36.99-2.34L36.99-2.34Q36.99-1.57 37.25-0.99Q37.50-0.42 38.11-0.42L38.11-0.42Q38.69-0.42 39.54-0.98Q40.38-1.54 41.25-2.35Q42.11-3.17 42.82-3.94Q43.52-4.70 43.81-5.12L43.81-5.12Q43.90-5.22 44-5.22L44-5.22Q44.13-5.22 44.21-5.09Q44.29-4.96 44.19-4.77L44.19-4.77Q43.87-4.22 43.17-3.42Q42.46-2.62 41.60-1.81Q40.74-0.99 39.94-0.38L39.94-0.38Q38.94 0.32 37.92 0.32ZM37.89-5.76L37.89-5.76Q39.10-6.59 40.42-7.92Q41.73-9.25 42.99-10.82Q44.26-12.38 45.30-13.92Q46.34-15.46 46.98-16.70L46.98-16.70Q47.17-17.06 47.25-17.33Q47.33-17.60 47.33-17.82L47.33-17.82Q47.33-18.43 46.82-18.43L46.82-18.43Q46.37-18.43 45.70-17.95L45.70-17.95Q43.97-16.61 42.50-14.51Q41.02-12.42 39.87-10.11Q38.72-7.81 37.89-5.76ZM51.90 0.32L51.90 0.32Q51.33 0.32 50.88 0.06Q50.43-0.19 50.21-0.90L50.21-0.90Q50.18-1.06 50.13-1.26Q50.08-1.47 50.08-1.70L50.08-1.70Q50.08-2.46 50.29-3.42Q50.50-4.38 50.75-5.02L50.75-5.02Q50.62-4.93 50.30-4.38Q49.98-3.84 49.50-3.12Q49.02-2.40 48.43-1.68Q47.84-0.96 47.15-0.50Q46.46-0.03 45.70-0.03L45.70-0.03Q45.18-0.03 44.46-0.32Q43.74-0.61 43.42-1.12L43.42-1.12Q43.10-1.63 43.10-2.40L43.10-2.40Q43.10-3.33 43.52-4.43Q43.94-5.54 44.58-6.50L44.58-6.50Q44.80-6.82 45.09-7.26Q45.38-7.71 45.66-8.05Q45.95-8.38 46.08-8.42L46.08-8.42Q46.46-8.54 46.98-8.54L46.98-8.54Q47.52-8.54 47.78-8.42L47.78-8.42Q48-8.32 48-8.19L48-8.19Q48-8.03 47.74-7.78L47.74-7.78Q47.39-7.46 46.78-6.82Q46.18-6.18 45.58-5.28Q44.99-4.38 44.61-3.30L44.61-3.30Q44.29-2.43 44.29-1.79L44.29-1.79Q44.29-0.67 45.18-0.67L45.18-0.67Q45.95-0.67 46.82-1.31Q47.68-1.95 48.50-2.88Q49.31-3.81 49.97-4.72Q50.62-5.63 50.98-6.18L50.98-6.18Q51.30-6.62 51.70-7.33Q52.10-8.03 52.48-8.70Q52.86-9.38 53.09-9.70L53.09-9.70Q53.31-9.70 53.78-9.62Q54.24-9.54 54.58-9.34Q54.91-9.15 54.75-8.86L54.75-8.86Q54.56-8.54 54.16-7.87Q53.76-7.20 53.36-6.51Q52.96-5.82 52.74-5.41L52.74-5.41Q51.97-3.94 51.74-2.24L51.74-2.24Q51.71-2.11 51.71-2Q51.71-1.89 51.71-1.76L51.71-1.76Q51.71-0.48 52.58-0.48L52.58-0.48Q53.06-0.48 53.86-1.06Q54.66-1.63 55.50-2.43Q56.35-3.23 57.04-3.98Q57.73-4.74 57.98-5.12L57.98-5.12Q58.05-5.22 58.18-5.22L58.18-5.22Q58.30-5.22 58.38-5.12Q58.46-5.02 58.37-4.86L58.37-4.86Q58.08-4.32 57.39-3.50Q56.70-2.69 55.87-1.87Q55.04-1.06 54.24-0.48L54.24-0.48Q53.82-0.16 53.18 0.08Q52.54 0.32 51.90 0.32ZM61.79 0.38L61.79 0.38Q61.25 0.38 60.83 0.14Q60.42-0.10 60.26-0.77L60.26-0.77Q60.16-1.12 60.16-1.47L60.16-1.47Q60.16-2.43 60.66-3.34Q61.15-4.26 61.82-5.04Q62.50-5.82 62.98-6.37L62.98-6.37Q63.23-6.62 63.57-7.04Q63.90-7.46 63.90-7.87L63.90-7.87Q63.90-8.13 63.65-8.37Q63.39-8.61 62.72-8.70L62.72-8.70Q62.34-8.77 62-8.82Q61.66-8.86 61.31-8.86L61.31-8.86Q60.42-7.65 59.57-6.42Q58.72-5.18 57.76-4L57.76-4Q57.54-3.78 57.38-3.78L57.38-3.78Q57.18-3.78 57.18-3.97L57.18-3.97Q57.18-4.16 57.38-4.35L57.38-4.35Q59.10-6.46 60.35-8.86L60.35-8.86Q60.19-8.86 59.87-8.88Q59.55-8.90 59.36-8.93L59.36-8.93Q59.14-8.99 59.01-9.12Q58.88-9.25 58.88-9.38L58.88-9.38Q58.88-9.57 59.04-9.60L59.04-9.60Q59.46-9.73 59.94-9.98Q60.42-10.24 60.83-10.66L60.83-10.66Q61.28-11.10 61.66-11.60Q62.05-12.10 62.27-12.35L62.27-12.35Q62.50-12.51 62.75-12.51L62.75-12.51Q62.91-12.51 63.06-12.42Q63.20-12.32 63.20-12.13L63.20-12.13Q63.20-11.90 63.01-11.55L63.01-11.55Q62.72-11.10 62.38-10.56Q62.05-10.02 61.76-9.57L61.76-9.57Q62.34-9.54 62.91-9.50Q63.49-9.47 64.10-9.47L64.10-9.47Q64.42-9.47 64.72-9.49Q65.02-9.50 65.34-9.50L65.34-9.50Q66.30-9.50 66.30-9.02L66.30-9.02Q66.30-8.70 65.97-8.24Q65.63-7.78 65.15-7.23L65.15-7.23Q64.06-5.98 63.30-4.61Q62.53-3.23 62.27-2.50L62.27-2.50Q62.02-1.73 62.02-1.34L62.02-1.34Q62.02-0.58 62.62-0.58L62.62-0.58Q63.17-0.58 63.95-1.12Q64.74-1.66 65.57-2.45Q66.40-3.23 67.07-3.98Q67.74-4.74 68.03-5.12L68.03-5.12Q68.10-5.22 68.22-5.22L68.22-5.22Q68.35-5.22 68.45-5.10Q68.54-4.99 68.45-4.83L68.45-4.83Q68.10-4.29 67.42-3.47Q66.75-2.66 65.92-1.86Q65.09-1.06 64.29-0.48L64.29-0.48Q63.87-0.16 63.15 0.11Q62.43 0.38 61.79 0.38ZM76.54 0.32L76.54 0.32Q76 0.32 75.54 0.06Q75.07-0.19 74.85-0.90L74.85-0.90Q74.75-1.18 74.75-1.70L74.75-1.70Q74.75-2.40 74.94-3.26Q75.14-4.13 75.36-4.74L75.36-4.74Q75.20-4.67 74.77-4.18Q74.34-3.68 73.71-2.99Q73.09-2.30 72.34-1.62Q71.58-0.93 70.78-0.48Q69.98-0.03 69.22-0.03L69.22-0.03Q68.70-0.03 68.13-0.34Q67.55-0.64 67.20-1.12L67.20-1.12Q66.72-1.76 66.72-2.43L66.72-2.43Q66.72-3.30 67.31-4.22Q67.90-5.15 68.85-6.03Q69.79-6.91 70.86-7.63Q71.94-8.35 72.91-8.85Q73.89-9.34 74.50-9.50L74.50-9.50Q75.14-9.70 75.94-9.70L75.94-9.70Q76.38-9.70 76.86-9.58Q77.34-9.47 77.66-9.22L77.66-9.22Q77.92-9.09 78.08-8.86Q78.24-8.64 78.24-8.38L78.24-8.38Q78.24-8.13 78.02-8.22L78.02-8.22Q77.76-8.61 77.33-8.72Q76.90-8.83 76.45-8.83L76.45-8.83Q75.17-8.83 73.63-8Q72.10-7.17 70.88-6.05L70.88-6.05Q70.50-5.73 69.84-4.94Q69.18-4.16 68.64-3.23Q68.10-2.30 68.10-1.54L68.10-1.54Q68.10-1.12 68.32-0.80L68.32-0.80Q68.45-0.58 68.74-0.58L68.74-0.58Q69.18-0.58 69.94-1.06Q70.69-1.54 71.49-2.22Q72.29-2.91 72.94-3.55Q73.60-4.19 73.89-4.48L73.89-4.48Q74.05-4.64 74.51-5.14Q74.98-5.63 75.52-6.21Q76.06-6.78 76.50-7.20Q76.93-7.62 77.06-7.62L77.06-7.62Q77.22-7.62 77.58-7.54Q77.95-7.46 78.21-7.30Q78.46-7.14 78.30-6.88L78.30-6.88Q77.47-5.66 76.98-4.34Q76.48-3.01 76.38-2.24L76.38-2.24Q76.35-2.11 76.35-2Q76.35-1.89 76.35-1.76L76.35-1.76Q76.35-0.48 77.25-0.48L77.25-0.48Q77.73-0.48 78.53-1.06Q79.33-1.63 80.16-2.43Q80.99-3.23 81.68-3.98Q82.37-4.74 82.62-5.12L82.62-5.12Q82.72-5.22 82.82-5.22L82.82-5.22Q82.94-5.22 83.04-5.10Q83.14-4.99 83.04-4.83L83.04-4.83Q82.69-4.26 82.02-3.46Q81.34-2.66 80.51-1.86Q79.68-1.06 78.88-0.48L78.88-0.48Q78.46-0.16 77.82 0.08Q77.18 0.32 76.54 0.32Z"/></svg>